#!OML:ASF I:\Actors\actors\Patient Classification 2\Patient 1\Session 1\actor1.ASF
:FULLY-SPECIFIED
:DEGREES
887
root -0.69577 18.8466 5.17061 28.7199 3.53042 -0.569059
lowerback 25.9396 0.239025 1.65641
upperback 1.52357 0.951215 1.16114
thorax -12.8091 0.378489 0.0242354
lowerneck -5.30703 -4.54542 -2.64966
upperneck -18.4691 -5.14116 7.88234
head -4.36273 -2.8111 2.99093
rclavicle 1.59028e-015 -8.34896e-015
rhumerus 2.54543 26.7134 -69.4625
rradius 45.556
rwrist 10.3333
rhand -24.463 -36.3169
rfingers 7.12502
rthumb 2.03022 -66.287
lclavicle 1.59028e-015 -8.34896e-015
lhumerus 6.62131 -24.1608 77.1021
lradius 44.787
lwrist -12.9911
lhand -21.6378 -43.3609
lfingers 7.12502
lthumb 4.75856 -13.4344
rfemur -31.2791 -1.37763 14.6928
rtibia 12.7889
rfoot -20.75 -16.5267
rtoes -3.74318
lfemur -42.8324 -1.12131 -11.379
ltibia 27.8717
lfoot -14.4796 8.19153
ltoes -55.5903
888
root -0.695891 18.8467 5.17054 28.6812 3.56038 -0.545116
lowerback 25.8905 0.207203 1.62867
upperback 1.47993 0.902553 1.166
thorax -12.8343 0.35812 0.0636023
lowerneck -5.55641 -4.45446 -2.65722
upperneck -18.6783 -5.00941 7.82789
head -4.39533 -2.74029 2.97333
rclavicle -4.37326e-015 -7.55382e-015
rhumerus 2.4903 26.7003 -69.399
rradius 45.5992
rwrist 10.3795
rhand -24.4109 -36.6525
rfingers 7.12502
rthumb 2.08051 -66.6221
lclavicle -4.37326e-015 -7.55382e-015
lhumerus 6.4669 -24.1624 77.1456
lradius 44.9148
lwrist -12.9083
lhand -21.5056 -43.4297
lfingers 7.12502
lthumb 4.88616 -13.5061
rfemur -31.1748 -1.42403 14.6927
rtibia 12.6911
rfoot -20.705 -16.5274
rtoes -3.74983
lfemur -42.7618 -1.10665 -11.4241
ltibia 27.8122
lfoot -14.4428 8.14637
ltoes -55.6202
889
root -0.696075 18.8473 5.16994 28.6648 3.58093 -0.541837
lowerback 25.7971 0.188868 1.60236
upperback 1.45552 0.872676 1.18922
thorax -12.8129 0.347269 0.116382
lowerneck -5.8971 -4.38453 -2.62724
upperneck -18.7942 -4.92027 7.703
head -4.38608 -2.68694 2.92356
rclavicle -5.96354e-015 -8.74653e-015
rhumerus 2.47061 26.7352 -69.2706
rradius 45.6417
rwrist 10.27
rhand -24.4956 -36.5618
rfingers 7.12502
rthumb 1.99872 -66.5322
lclavicle -5.96354e-015 -8.74653e-015
lhumerus 6.37042 -24.1722 77.1896
lradius 44.986
lwrist -12.8126
lhand -21.5265 -43.5351
lfingers 7.12502
lthumb 4.866 -13.611
rfemur -31.1115 -1.41824 14.6889
rtibia 12.6058
rfoot -20.6772 -16.5741
rtoes -3.79934
lfemur -42.7268 -1.11184 -11.4244
ltibia 27.7751
lfoot -14.4539 8.13225
ltoes -55.562
890
root -0.69629 18.8479 5.16926 28.666 3.58426 -0.560659
lowerback 25.692 0.182062 1.5907
upperback 1.41714 0.860874 1.20468
thorax -12.8009 0.34329 0.14543
lowerneck -6.07769 -4.31774 -2.55135
upperneck -19.0229 -4.83182 7.59235
head -4.43819 -2.64201 2.87763
rclavicle 3.57812e-015 7.95139e-015
rhumerus 2.43208 26.7591 -69.1965
rradius 45.6171
rwrist 10.155
rhand -24.6676 -36.1326
rfingers 7.12502
rthumb 1.83259 -66.1044
lclavicle 3.57812e-015 7.95139e-015
lhumerus 6.25772 -24.2237 77.2236
lradius 45.0259
lwrist -12.7706
lhand -21.6868 -43.6086
lfingers 7.12502
lthumb 4.71117 -13.681
rfemur -31.081 -1.41114 14.7091
rtibia 12.5303
rfoot -20.6572 -16.602
rtoes -3.80888
lfemur -42.7197 -1.09614 -11.406
ltibia 27.7545
lfoot -14.4531 8.12444
ltoes -55.5929
891
root -0.696609 18.8472 5.16915 28.6561 3.59432 -0.57853
lowerback 25.6254 0.160416 1.59844
upperback 1.36192 0.833769 1.19823
thorax -12.8289 0.330058 0.14375
lowerneck -6.20606 -4.2329 -2.45265
upperneck -19.2498 -4.71031 7.5463
head -4.49811 -2.58632 2.84871
rclavicle 7.95139e-016 3.97569e-016
rhumerus 2.38074 26.7219 -69.2318
rradius 45.5805
rwrist 10.0753
rhand -24.8256 -35.9772
rfingers 7.12502
rthumb 1.67996 -65.9503
lclavicle 7.95139e-016 3.97569e-016
lhumerus 6.05269 -24.2103 77.279
lradius 45.0809
lwrist -12.8438
lhand -21.752 -43.6993
lfingers 7.12502
lthumb 4.64826 -13.7703
rfemur -31.0233 -1.40297 14.7349
rtibia 12.4492
rfoot -20.6869 -16.6005
rtoes -3.61202
lfemur -42.7034 -1.08953 -11.3854
ltibia 27.7394
lfoot -14.4399 8.09947
ltoes -55.6628
892
root -0.697159 18.8471 5.16887 28.6326 3.57361 -0.581222
lowerback 25.5718 0.149771 1.58984
upperback 1.33006 0.813616 1.17439
thorax -12.8365 0.32043 0.129054
lowerneck -6.44938 -4.16007 -2.32641
upperneck -19.3863 -4.60932 7.49632
head -4.51152 -2.53963 2.80916
rclavicle 2.98177e-015 1.31198e-014
rhumerus 2.41584 26.6337 -69.2715
rradius 45.5077
rwrist 10.0418
rhand -24.8914 -35.9681
rfingers 7.12502
rthumb 1.6165 -65.9417
lclavicle 2.98177e-015 1.31198e-014
lhumerus 5.89246 -24.1363 77.3493
lradius 45.0901
lwrist -12.9656
lhand -21.7357 -43.8046
lfingers 7.12502
lthumb 4.66395 -13.876
rfemur -30.9592 -1.3612 14.7219
rtibia 12.3705
rfoot -20.7041 -16.6171
rtoes -3.47839
lfemur -42.669 -1.07822 -11.387
ltibia 27.7288
lfoot -14.4389 8.08502
ltoes -55.6642
